<?xml version="1.0" encoding="UTF-8" standalone="no"?>
<!DOCTYPE svg PUBLIC "-//W3C//DTD SVG 1.1//EN"
 "http://www.w3.org/Graphics/SVG/1.1/DTD/svg11.dtd">
<!-- Generated by graphviz version 2.43.0 (0)
 -->
<!-- Title: DataModel Pages: 1 -->
<svg width="558pt" height="586pt"
 viewBox="0.00 0.00 557.50 586.38" xmlns="http://www.w3.org/2000/svg" xmlns:xlink="http://www.w3.org/1999/xlink">
<g id="graph0" class="graph" transform="scale(1 1) rotate(0) translate(4 582.38)">
<title>DataModel</title>
<polygon fill="#050510" stroke="transparent" points="-4,4 -4,-582.38 553.5,-582.38 553.5,4 -4,4"/>
<!-- SessionNode -->
<g id="node1" class="node">
<title>SessionNode</title>
<polygon fill="#0a0a2a" stroke="#00ffff" points="77.5,-288.5 77.5,-426.5 217.5,-426.5 217.5,-288.5 77.5,-288.5"/>
<text text-anchor="middle" x="147.5" y="-411.3" font-family="Courier New" font-size="14.00" fill="#ff00ff">(:Session)</text>
<polyline fill="none" stroke="#00ffff" points="77.5,-403.5 217.5,-403.5 "/>
<text text-anchor="start" x="85.5" y="-388.3" font-family="Courier New" font-size="14.00" fill="#ff00ff">path: String</text>
<polyline fill="none" stroke="#00ffff" points="77.5,-380.5 217.5,-380.5 "/>
<text text-anchor="start" x="85.5" y="-365.3" font-family="Courier New" font-size="14.00" fill="#ff00ff">title: String</text>
<polyline fill="none" stroke="#00ffff" points="77.5,-357.5 217.5,-357.5 "/>
<text text-anchor="start" x="85.5" y="-342.3" font-family="Courier New" font-size="14.00" fill="#ff00ff">slug: String</text>
<polyline fill="none" stroke="#00ffff" points="77.5,-334.5 217.5,-334.5 "/>
<text text-anchor="start" x="85.5" y="-319.3" font-family="Courier New" font-size="14.00" fill="#ff00ff">date: String</text>
<polyline fill="none" stroke="#00ffff" points="77.5,-311.5 217.5,-311.5 "/>
<text text-anchor="start" x="85.5" y="-296.3" font-family="Courier New" font-size="14.00" fill="#ff00ff">summary: String</text>
</g>
<!-- ConceptNode -->
<g id="node2" class="node">
<title>ConceptNode</title>
<polygon fill="#0a0a2a" stroke="#00ffff" points="0,-144.5 0,-213.5 165,-213.5 165,-144.5 0,-144.5"/>
<text text-anchor="middle" x="82.5" y="-198.3" font-family="Courier New" font-size="14.00" fill="#ff00ff">(:Concept)</text>
<polyline fill="none" stroke="#00ffff" points="0,-190.5 165,-190.5 "/>
<text text-anchor="start" x="8" y="-175.3" font-family="Courier New" font-size="14.00" fill="#ff00ff">name: String</text>
<polyline fill="none" stroke="#00ffff" points="0,-167.5 165,-167.5 "/>
<text text-anchor="start" x="8" y="-152.3" font-family="Courier New" font-size="14.00" fill="#ff00ff">definition: String</text>
</g>
<!-- SessionNode&#45;&gt;ConceptNode -->
<g id="edge1" class="edge">
<title>SessionNode:f0&#45;&gt;ConceptNode:f0</title>
<path fill="none" stroke="#ff00aa" d="M76.5,-415.5C-9.34,-415.5 75.69,-312.26 82.12,-225.01"/>
<polygon fill="#ff00aa" stroke="#ff00aa" points="85.62,-225.13 82.5,-215 78.62,-224.86 85.62,-225.13"/>
<text text-anchor="middle" x="130.5" y="-258.8" font-family="Courier New" font-size="14.00" fill="#00ff00"> [:MENTIONS] </text>
</g>
<!-- IDMap -->
<g id="node4" class="node">
<title>IDMap</title>
<polygon fill="#0a0a2a" stroke="#00ffff" points="183,-121.5 183,-236.5 356,-236.5 356,-121.5 183,-121.5"/>
<text text-anchor="middle" x="269.5" y="-221.3" font-family="Courier New" font-size="14.00" fill="#ff00ff">id_map.json (Array)</text>
<polyline fill="none" stroke="#00ffff" points="183,-213.5 356,-213.5 "/>
<text text-anchor="start" x="191" y="-198.3" font-family="Courier New" font-size="14.00" fill="#ff00ff">session: String</text>
<polyline fill="none" stroke="#00ffff" points="183,-190.5 356,-190.5 "/>
<text text-anchor="start" x="191" y="-175.3" font-family="Courier New" font-size="14.00" fill="#ff00ff">path: String</text>
<polyline fill="none" stroke="#00ffff" points="183,-167.5 356,-167.5 "/>
<text text-anchor="start" x="191" y="-152.3" font-family="Courier New" font-size="14.00" fill="#ff00ff">chunk_idx: Integer</text>
<polyline fill="none" stroke="#00ffff" points="183,-144.5 356,-144.5 "/>
<text text-anchor="start" x="191" y="-129.3" font-family="Courier New" font-size="14.00" fill="#ff00ff">snippet: String</text>
</g>
<!-- SessionNode&#45;&gt;IDMap -->
<g id="edge3" class="edge">
<title>SessionNode:f0&#45;&gt;IDMap:f0</title>
<path fill="none" stroke="#ffff00" stroke-dasharray="1,5" d="M218.5,-415.5C297.62,-415.5 271.89,-327.22 269.65,-247.21"/>
<polygon fill="#ffff00" stroke="#ffff00" points="273.15,-246.95 269.5,-237 266.15,-247.05 273.15,-246.95"/>
<text text-anchor="middle" x="321.5" y="-258.8" font-family="Courier New" font-size="14.00" fill="#00ff00"> slug match </text>
</g>
<!-- FAISSIndex -->
<g id="node3" class="node">
<title>FAISSIndex</title>
<polygon fill="#0a0a2a" stroke="#00ffff" points="166.5,-0.5 166.5,-69.5 372.5,-69.5 372.5,-0.5 166.5,-0.5"/>
<text text-anchor="middle" x="269.5" y="-54.3" font-family="Courier New" font-size="14.00" fill="#ff00ff">FAISS IndexFlatIP</text>
<polyline fill="none" stroke="#00ffff" points="166.5,-46.5 372.5,-46.5 "/>
<text text-anchor="start" x="174.5" y="-31.3" font-family="Courier New" font-size="14.00" fill="#ff00ff">Tensor[N, 1024] float32</text>
<polyline fill="none" stroke="#00ffff" points="166.5,-23.5 372.5,-23.5 "/>
<text text-anchor="start" x="174.5" y="-8.3" font-family="Courier New" font-size="14.00" fill="#ff00ff">Inner Product Metric</text>
</g>
<!-- IDMap&#45;&gt;FAISSIndex -->
<g id="edge2" class="edge">
<title>IDMap:f0&#45;&gt;FAISSIndex:f0</title>
<path fill="none" stroke="#ff00aa" stroke-dasharray="5,2" d="M269.5,-238C269.5,-247.61 349.24,-243.84 356,-237 392.24,-200.33 386.2,-162.78 356,-121 341.06,-100.33 323.11,-116.55 301.5,-103 287.57,-94.27 275.34,-91.45 271.09,-80.04"/>
<polygon fill="#ff00aa" stroke="#ff00aa" points="274.52,-79.33 269.5,-70 267.61,-80.42 274.52,-79.33"/>
<text text-anchor="middle" x="425.5" y="-91.8" font-family="Courier New" font-size="14.00" fill="#00ff00"> Maps index &#39;i&#39; to vector &#39;i&#39; </text>
</g>
<!-- IngestedMap -->
<g id="node5" class="node">
<title>IngestedMap</title>
<polygon fill="#0a0a2a" stroke="#00ffff" points="48.5,-478.5 48.5,-570.5 246.5,-570.5 246.5,-478.5 48.5,-478.5"/>
<text text-anchor="middle" x="147.5" y="-555.3" font-family="Courier New" font-size="14.00" fill="#ff00ff">ingested_sessions.json</text>
<polyline fill="none" stroke="#00ffff" points="48.5,-547.5 246.5,-547.5 "/>
<text text-anchor="start" x="56.5" y="-532.3" font-family="Courier New" font-size="14.00" fill="#ff00ff">Key: slug (String)</text>
<polyline fill="none" stroke="#00ffff" points="48.5,-524.5 246.5,-524.5 "/>
<text text-anchor="start" x="56.5" y="-509.3" font-family="Courier New" font-size="14.00" fill="#ff00ff">processed_at: ISO8601</text>
<polyline fill="none" stroke="#00ffff" points="48.5,-501.5 246.5,-501.5 "/>
<text text-anchor="start" x="56.5" y="-486.3" font-family="Courier New" font-size="14.00" fill="#ff00ff">chunks: Integer</text>
</g>
<!-- IngestedMap&#45;&gt;SessionNode -->
<g id="edge4" class="edge">
<title>IngestedMap:f0&#45;&gt;SessionNode:f0</title>
<path fill="none" stroke="#00ff00" stroke-dasharray="5,2" d="M147.5,-571.5C147.5,-582.5 238.76,-578.32 246.5,-570.5 275.42,-541.28 267.9,-513.1 246.5,-478 222.75,-439.04 158.65,-470.63 148.78,-437.03"/>
<polygon fill="#00ff00" stroke="#00ff00" points="152.24,-436.47 147.5,-427 145.3,-437.36 152.24,-436.47"/>
<text text-anchor="middle" x="334" y="-448.8" font-family="Courier New" font-size="14.00" fill="#00ff00"> prevents duplicate upsert </text>
</g>
</g>
</svg>
