<?xml version="1.0" encoding="UTF-8" standalone="no"?>
<!DOCTYPE svg PUBLIC "-//W3C//DTD SVG 1.1//EN"
 "http://www.w3.org/Graphics/SVG/1.1/DTD/svg11.dtd">
<!-- Generated by graphviz version 2.43.0 (0)
 -->
<!-- Title: root_cause Pages: 1 -->
<svg width="1054pt" height="292pt"
 viewBox="0.00 0.00 1053.60 291.60" xmlns="http://www.w3.org/2000/svg" xmlns:xlink="http://www.w3.org/1999/xlink">
<g id="graph0" class="graph" transform="scale(1 1) rotate(0) translate(28.8 262.8)">
<title>root_cause</title>
<polygon fill="#06090f" stroke="transparent" points="-28.8,28.8 -28.8,-262.8 1024.8,-262.8 1024.8,28.8 -28.8,28.8"/>
<text text-anchor="middle" x="498" y="-218" font-family="Courier,monospace" font-size="15.00" fill="#5fffcf">Root cause — VRAM exhaustion → llama&#45;runner OOM (HTTP 500)</text>
<g id="clust1" class="cluster">
<title>cluster_models</title>
<polygon fill="#06090f" stroke="#116633" points="197,-50 197,-175 434,-175 434,-50 197,-50"/>
<text text-anchor="middle" x="315.5" y="-163" font-family="Courier,monospace" font-size="10.00" fill="#77aaaa">loaded models (OLLAMA_MAX_LOADED_MODELS=2)</text>
</g>
<g id="clust2" class="cluster">
<title>cluster_gpu0</title>
<polygon fill="#06090f" stroke="#116633" points="495,-122 495,-201 680,-201 680,-122 495,-122"/>
<text text-anchor="middle" x="587.5" y="-189" font-family="Courier,monospace" font-size="10.00" fill="#7ab8ff">GPU0 · RTX 5080 · 15.0 GiB avail</text>
</g>
<g id="clust3" class="cluster">
<title>cluster_gpu1</title>
<polygon fill="#06090f" stroke="#116633" points="498,-35 498,-114 677,-114 677,-35 498,-35"/>
<text text-anchor="middle" x="587.5" y="-102" font-family="Courier,monospace" font-size="10.00" fill="#ff6b6b">GPU1 · RTX 3080 · 8.2 GiB avail</text>
</g>
<!-- nem -->
<g id="node1" class="node">
<title>nem</title>
<path fill="#0d141d" stroke="#ff7ad9" stroke-width="1.6" d="M361,-148C361,-148 269,-148 269,-148 263,-148 257,-142 257,-136 257,-136 257,-124 257,-124 257,-118 263,-112 269,-112 269,-112 361,-112 361,-112 367,-112 373,-118 373,-124 373,-124 373,-136 373,-136 373,-142 367,-148 361,-148"/>
<text text-anchor="middle" x="315" y="-133.2" font-family="Courier,monospace" font-size="11.00" fill="#ff7ad9">nemotron&#45;3&#45;nano&#45;30b</text>
<text text-anchor="middle" x="315" y="-121.2" font-family="Courier,monospace" font-size="11.00" fill="#ff7ad9">prose sections</text>
</g>
<!-- g0 -->
<g id="node3" class="node">
<title>g0</title>
<path fill="#0d141d" stroke="#7ab8ff" stroke-width="1.6" d="M644,-174C644,-174 531,-174 531,-174 525,-174 519,-168 519,-162 519,-162 519,-142 519,-142 519,-136 525,-130 531,-130 531,-130 644,-130 644,-130 650,-130 656,-136 656,-142 656,-142 656,-162 656,-162 656,-168 650,-174 644,-174"/>
<text text-anchor="middle" x="587.5" y="-161.2" font-family="Courier,monospace" font-size="11.00" fill="#7ab8ff">weights 13.4</text>
<text text-anchor="middle" x="587.5" y="-149.2" font-family="Courier,monospace" font-size="11.00" fill="#7ab8ff">+ kv 0.82 &#160;+ graph 0.54</text>
<text text-anchor="middle" x="587.5" y="-137.2" font-family="Courier,monospace" font-size="11.00" fill="#7ab8ff">= 14.76 GiB &#160;(tight)</text>
</g>
<!-- nem&#45;&gt;g0 -->
<g id="edge1" class="edge">
<title>nem&#45;&gt;g0</title>
<path fill="none" stroke="#2c4a5a" stroke-width="1.4" d="M373.04,-134.64C412.35,-137.84 465.11,-142.13 508.34,-145.64"/>
<polygon fill="#2c4a5a" stroke="#2c4a5a" stroke-width="1.4" points="508.29,-149.15 518.54,-146.47 508.85,-142.17 508.29,-149.15"/>
<text text-anchor="middle" x="464.5" y="-145.8" font-family="Courier,monospace" font-size="9.00" fill="#66aa88">split</text>
</g>
<!-- g1 -->
<g id="node4" class="node">
<title>g1</title>
<path fill="#0d141d" stroke="#ff6b6b" stroke-width="2.4" d="M644,-87C644,-87 531,-87 531,-87 525,-87 519,-81 519,-75 519,-75 519,-55 519,-55 519,-49 525,-43 531,-43 531,-43 644,-43 644,-43 650,-43 656,-49 656,-55 656,-55 656,-75 656,-75 656,-81 650,-87 644,-87"/>
<text text-anchor="middle" x="587.5" y="-74.2" font-family="Courier,monospace" font-size="11.00" fill="#ff6b6b">weights 7.7</text>
<text text-anchor="middle" x="587.5" y="-62.2" font-family="Courier,monospace" font-size="11.00" fill="#ff6b6b">+ kv 0.37 &#160;+ graph 0.19</text>
<text text-anchor="middle" x="587.5" y="-50.2" font-family="Courier,monospace" font-size="11.00" fill="#ff6b6b">= 8.26 GiB &#160;⚠ OVER</text>
</g>
<!-- nem&#45;&gt;g1 -->
<g id="edge2" class="edge">
<title>nem&#45;&gt;g1</title>
<path fill="none" stroke="#2c4a5a" stroke-width="1.4" d="M373.23,-117.71C406.03,-110.52 447.91,-101.1 485,-92 492.81,-90.08 500.93,-88.03 509.04,-85.94"/>
<polygon fill="#2c4a5a" stroke="#2c4a5a" stroke-width="1.4" points="510.1,-89.28 518.89,-83.38 508.33,-82.5 510.1,-89.28"/>
<text text-anchor="middle" x="464.5" y="-102.8" font-family="Courier,monospace" font-size="9.00" fill="#66aa88">split</text>
</g>
<!-- qwen -->
<g id="node2" class="node">
<title>qwen</title>
<path fill="#0d141d" stroke="#ff7ad9" stroke-width="1.6" d="M350.5,-94C350.5,-94 279.5,-94 279.5,-94 273.5,-94 267.5,-88 267.5,-82 267.5,-82 267.5,-70 267.5,-70 267.5,-64 273.5,-58 279.5,-58 279.5,-58 350.5,-58 350.5,-58 356.5,-58 362.5,-64 362.5,-70 362.5,-70 362.5,-82 362.5,-82 362.5,-88 356.5,-94 350.5,-94"/>
<text text-anchor="middle" x="315" y="-79.2" font-family="Courier,monospace" font-size="11.00" fill="#ff7ad9">qwen3&#45;coder:30b</text>
<text text-anchor="middle" x="315" y="-67.2" font-family="Courier,monospace" font-size="11.00" fill="#ff7ad9">C++ section</text>
</g>
<!-- qwen&#45;&gt;g1 -->
<g id="edge3" class="edge">
<title>qwen&#45;&gt;g1</title>
<path fill="none" stroke="#ff6b6b" stroke-width="1.4" stroke-dasharray="5,2" d="M362.5,-74.11C402.61,-72.48 461.36,-70.09 508.63,-68.17"/>
<polygon fill="#ff6b6b" stroke="#ff6b6b" stroke-width="1.4" points="508.99,-71.66 518.84,-67.75 508.7,-64.66 508.99,-71.66"/>
<text text-anchor="middle" x="464.5" y="-82.8" font-family="Courier,monospace" font-size="9.00" fill="#66aa88">2nd 30B</text>
<text text-anchor="middle" x="464.5" y="-72.8" font-family="Courier,monospace" font-size="9.00" fill="#66aa88">thrash</text>
</g>
<!-- oom -->
<g id="node7" class="node">
<title>oom</title>
<path fill="#0d141d" stroke="#ff6b6b" stroke-width="2.4" d="M815,-83C815,-83 721,-83 721,-83 715,-83 709,-77 709,-71 709,-71 709,-59 709,-59 709,-53 715,-47 721,-47 721,-47 815,-47 815,-47 821,-47 827,-53 827,-59 827,-59 827,-71 827,-71 827,-77 821,-83 815,-83"/>
<text text-anchor="middle" x="768" y="-68.2" font-family="Courier,monospace" font-size="11.00" fill="#ff6b6b">CUDA alloc fails</text>
<text text-anchor="middle" x="768" y="-56.2" font-family="Courier,monospace" font-size="11.00" fill="#ff6b6b">→ runner terminated</text>
</g>
<!-- g1&#45;&gt;oom -->
<g id="edge6" class="edge">
<title>g1&#45;&gt;oom</title>
<path fill="none" stroke="#2c4a5a" stroke-width="1.4" d="M656.24,-65C670.21,-65 684.92,-65 698.9,-65"/>
<polygon fill="#2c4a5a" stroke="#2c4a5a" stroke-width="1.4" points="698.93,-68.5 708.93,-65 698.93,-61.5 698.93,-68.5"/>
</g>
<!-- ctx -->
<g id="node5" class="node">
<title>ctx</title>
<path fill="#0d141d" stroke="#ffd45f" stroke-width="1.6" d="M116,-44C116,-44 12,-44 12,-44 6,-44 0,-38 0,-32 0,-32 0,-12 0,-12 0,-6 6,0 12,0 12,0 116,0 116,0 122,0 128,-6 128,-12 128,-12 128,-32 128,-32 128,-38 122,-44 116,-44"/>
<text text-anchor="middle" x="64" y="-31.2" font-family="Courier,monospace" font-size="11.00" fill="#ffd45f">long context</text>
<text text-anchor="middle" x="64" y="-19.2" font-family="Courier,monospace" font-size="11.00" fill="#ffd45f">(90k chars ≈ 22k tok)</text>
<text text-anchor="middle" x="64" y="-7.2" font-family="Courier,monospace" font-size="11.00" fill="#ffd45f">overflows 16k window</text>
</g>
<!-- kv -->
<g id="node6" class="node">
<title>kv</title>
<path fill="#0d141d" stroke="#ffd45f" stroke-width="1.6" d="M348,-40C348,-40 282,-40 282,-40 276,-40 270,-34 270,-28 270,-28 270,-16 270,-16 270,-10 276,-4 282,-4 282,-4 348,-4 348,-4 354,-4 360,-10 360,-16 360,-16 360,-28 360,-28 360,-34 354,-40 348,-40"/>
<text text-anchor="middle" x="315" y="-19.2" font-family="Courier,monospace" font-size="11.00" fill="#ffd45f">KV cache grows</text>
</g>
<!-- ctx&#45;&gt;kv -->
<g id="edge4" class="edge">
<title>ctx&#45;&gt;kv</title>
<path fill="none" stroke="#2c4a5a" stroke-width="1.4" d="M128.16,-22C168.76,-22 220.97,-22 259.71,-22"/>
<polygon fill="#2c4a5a" stroke="#2c4a5a" stroke-width="1.4" points="259.75,-25.5 269.75,-22 259.75,-18.5 259.75,-25.5"/>
<text text-anchor="middle" x="166.5" y="-24.8" font-family="Courier,monospace" font-size="9.00" fill="#66aa88">tips over</text>
</g>
<!-- kv&#45;&gt;g1 -->
<g id="edge5" class="edge">
<title>kv&#45;&gt;g1</title>
<path fill="none" stroke="#2c4a5a" stroke-width="1.4" d="M360.06,-29C400.24,-35.39 460.53,-44.97 508.79,-52.65"/>
<polygon fill="#2c4a5a" stroke="#2c4a5a" stroke-width="1.4" points="508.47,-56.14 518.9,-54.25 509.57,-49.23 508.47,-56.14"/>
<text text-anchor="middle" x="464.5" y="-51.8" font-family="Courier,monospace" font-size="9.00" fill="#66aa88">tips over</text>
</g>
<!-- err -->
<g id="node8" class="node">
<title>err</title>
<path fill="#0d141d" stroke="#ff6b6b" stroke-width="2.4" d="M984,-87C984,-87 876,-87 876,-87 870,-87 864,-81 864,-75 864,-75 864,-55 864,-55 864,-49 870,-43 876,-43 876,-43 984,-43 984,-43 990,-43 996,-49 996,-55 996,-55 996,-75 996,-75 996,-81 990,-87 984,-87"/>
<text text-anchor="middle" x="930" y="-74.2" font-family="Courier,monospace" font-size="11.00" fill="#ff6b6b">HTTP 500</text>
<text text-anchor="middle" x="930" y="-62.2" font-family="Courier,monospace" font-size="11.00" fill="#ff6b6b">&quot;resource limitations&quot;</text>
<text text-anchor="middle" x="930" y="-50.2" font-family="Courier,monospace" font-size="11.00" fill="#ff6b6b">11 / 5219 papers</text>
</g>
<!-- oom&#45;&gt;err -->
<g id="edge7" class="edge">
<title>oom&#45;&gt;err</title>
<path fill="none" stroke="#2c4a5a" stroke-width="1.4" d="M827.22,-65C835.85,-65 844.85,-65 853.77,-65"/>
<polygon fill="#2c4a5a" stroke="#2c4a5a" stroke-width="1.4" points="853.79,-68.5 863.79,-65 853.79,-61.5 853.79,-68.5"/>
</g>
</g>
</svg>
