<?xml version="1.0" encoding="UTF-8" standalone="no"?>
<!DOCTYPE svg PUBLIC "-//W3C//DTD SVG 1.1//EN"
 "http://www.w3.org/Graphics/SVG/1.1/DTD/svg11.dtd">
<!-- Generated by graphviz version 2.43.0 (0)
 -->
<!-- Title: routing Pages: 1 -->
<svg width="737pt" height="674pt"
 viewBox="0.00 0.00 736.60 673.60" xmlns="http://www.w3.org/2000/svg" xmlns:xlink="http://www.w3.org/1999/xlink">
<g id="graph0" class="graph" transform="scale(1 1) rotate(0) translate(28.8 644.8)">
<title>routing</title>
<polygon fill="#06090f" stroke="transparent" points="-28.8,28.8 -28.8,-644.8 707.8,-644.8 707.8,28.8 -28.8,28.8"/>
<text text-anchor="middle" x="339.5" y="-600" font-family="Courier,monospace" font-size="15.00" fill="#5fffcf">Capped pipeline — PDF → sized model + bounded OCR + bounded context</text>
<!-- pdf -->
<g id="node1" class="node">
<title>pdf</title>
<path fill="#0d141d" stroke="#9affae" stroke-width="2.2" d="M299,-591C299,-591 269,-591 269,-591 263,-591 257,-585 257,-579 257,-579 257,-567 257,-567 257,-561 263,-555 269,-555 269,-555 299,-555 299,-555 305,-555 311,-561 311,-567 311,-567 311,-579 311,-579 311,-585 305,-591 299,-591"/>
<text text-anchor="middle" x="284" y="-570.2" font-family="Courier,monospace" font-size="11.00" fill="#9affae">PDF</text>
</g>
<!-- ocr -->
<g id="node2" class="node">
<title>ocr</title>
<path fill="#0d141d" stroke="#ffd45f" stroke-width="1.6" d="M338,-504C338,-504 230,-504 230,-504 224,-504 218,-498 218,-492 218,-492 218,-480 218,-480 218,-474 224,-468 230,-468 230,-468 338,-468 338,-468 344,-468 350,-474 350,-480 350,-480 350,-492 350,-492 350,-498 344,-504 338,-504"/>
<text text-anchor="middle" x="284" y="-489.2" font-family="Courier,monospace" font-size="11.00" fill="#ffd45f">extract_pages_with_ocr</text>
<text text-anchor="middle" x="284" y="-477.2" font-family="Courier,monospace" font-size="11.00" fill="#ffd45f">max_ocr_pages=40</text>
</g>
<!-- pdf&#45;&gt;ocr -->
<g id="edge1" class="edge">
<title>pdf&#45;&gt;ocr</title>
<path fill="none" stroke="#2c4a5a" stroke-width="1.4" d="M284,-554.8C284,-543.16 284,-527.55 284,-514.24"/>
<polygon fill="#2c4a5a" stroke="#2c4a5a" stroke-width="1.4" points="287.5,-514.18 284,-504.18 280.5,-514.18 287.5,-514.18"/>
</g>
<!-- pc -->
<g id="node3" class="node">
<title>pc</title>
<path fill="#0d141d" stroke="#7ab8ff" stroke-width="1.6" d="M272.52,-413.49C272.52,-413.49 236.62,-402.51 236.62,-402.51 230.88,-400.75 230.88,-397.25 236.62,-395.49 236.62,-395.49 272.52,-384.51 272.52,-384.51 278.26,-382.75 289.74,-382.75 295.48,-384.51 295.48,-384.51 331.38,-395.49 331.38,-395.49 337.12,-397.25 337.12,-400.75 331.38,-402.51 331.38,-402.51 295.48,-413.49 295.48,-413.49 289.74,-415.25 278.26,-415.25 272.52,-413.49"/>
<text text-anchor="middle" x="284" y="-396.2" font-family="Courier,monospace" font-size="11.00" fill="#7ab8ff">page_count</text>
</g>
<!-- ocr&#45;&gt;pc -->
<g id="edge2" class="edge">
<title>ocr&#45;&gt;pc</title>
<path fill="none" stroke="#2c4a5a" stroke-width="1.4" d="M284,-467.8C284,-456.16 284,-440.55 284,-427.24"/>
<polygon fill="#2c4a5a" stroke="#2c4a5a" stroke-width="1.4" points="287.5,-427.18 284,-417.18 280.5,-427.18 287.5,-427.18"/>
</g>
<!-- m_fast -->
<g id="node4" class="node">
<title>m_fast</title>
<path fill="#0d141d" stroke="#7aa0c0" stroke-width="1.6" d="M118,-330C118,-330 12,-330 12,-330 6,-330 0,-324 0,-318 0,-318 0,-306 0,-306 0,-300 6,-294 12,-294 12,-294 118,-294 118,-294 124,-294 130,-300 130,-306 130,-306 130,-318 130,-318 130,-324 124,-330 118,-330"/>
<text text-anchor="middle" x="65" y="-309.2" font-family="Courier,monospace" font-size="11.00" fill="#7aa0c0">≤8pg → deepseek&#45;r1:8b</text>
</g>
<!-- pc&#45;&gt;m_fast -->
<g id="edge3" class="edge">
<title>pc&#45;&gt;m_fast</title>
<path fill="none" stroke="#2c4a5a" stroke-width="1.4" d="M259.3,-388.41C225.33,-375.23 163.29,-351.15 118.44,-333.74"/>
<polygon fill="#2c4a5a" stroke="#2c4a5a" stroke-width="1.4" points="119.45,-330.38 108.86,-330.02 116.92,-336.9 119.45,-330.38"/>
</g>
<!-- m_sing -->
<g id="node5" class="node">
<title>m_sing</title>
<path fill="#0d141d" stroke="#7aa0c0" stroke-width="1.6" d="M287,-330C287,-330 171,-330 171,-330 165,-330 159,-324 159,-318 159,-318 159,-306 159,-306 159,-300 165,-294 171,-294 171,-294 287,-294 287,-294 293,-294 299,-300 299,-306 299,-306 299,-318 299,-318 299,-324 293,-330 287,-330"/>
<text text-anchor="middle" x="229" y="-309.2" font-family="Courier,monospace" font-size="11.00" fill="#7aa0c0">≤18pg → deepseek&#45;r1:14b</text>
</g>
<!-- pc&#45;&gt;m_sing -->
<g id="edge4" class="edge">
<title>pc&#45;&gt;m_sing</title>
<path fill="none" stroke="#2c4a5a" stroke-width="1.4" d="M274.67,-383.58C266.75,-371.34 255.19,-353.48 245.69,-338.79"/>
<polygon fill="#2c4a5a" stroke="#2c4a5a" stroke-width="1.4" points="248.46,-336.63 240.08,-330.13 242.58,-340.43 248.46,-336.63"/>
</g>
<!-- m_xl -->
<g id="node6" class="node">
<title>m_xl</title>
<path fill="#0d141d" stroke="#ff7ad9" stroke-width="1.6" d="M493.5,-330C493.5,-330 340.5,-330 340.5,-330 334.5,-330 328.5,-324 328.5,-318 328.5,-318 328.5,-306 328.5,-306 328.5,-300 334.5,-294 340.5,-294 340.5,-294 493.5,-294 493.5,-294 499.5,-294 505.5,-300 505.5,-306 505.5,-306 505.5,-318 505.5,-318 505.5,-324 499.5,-330 493.5,-330"/>
<text text-anchor="middle" x="417" y="-309.2" font-family="Courier,monospace" font-size="11.00" fill="#ff7ad9">19–200pg → nemotron&#45;3&#45;nano&#45;30b</text>
</g>
<!-- pc&#45;&gt;m_xl -->
<g id="edge5" class="edge">
<title>pc&#45;&gt;m_xl</title>
<path fill="none" stroke="#2c4a5a" stroke-width="1.4" d="M302.21,-386.36C322.58,-373.34 356.05,-351.95 381.61,-335.62"/>
<polygon fill="#2c4a5a" stroke="#2c4a5a" stroke-width="1.4" points="383.74,-338.41 390.29,-330.07 379.97,-332.51 383.74,-338.41"/>
</g>
<!-- m_big -->
<g id="node7" class="node">
<title>m_big</title>
<path fill="#0d141d" stroke="#9affae" stroke-width="2.2" d="M667,-330C667,-330 547,-330 547,-330 541,-330 535,-324 535,-318 535,-318 535,-306 535,-306 535,-300 541,-294 547,-294 547,-294 667,-294 667,-294 673,-294 679,-300 679,-306 679,-306 679,-318 679,-318 679,-324 673,-330 667,-330"/>
<text text-anchor="middle" x="607" y="-315.2" font-family="Courier,monospace" font-size="11.00" fill="#9affae">&gt;200pg → deepseek&#45;r1:14b</text>
<text text-anchor="middle" x="607" y="-303.2" font-family="Courier,monospace" font-size="11.00" fill="#9affae">(was nemotron&#45;30b)</text>
</g>
<!-- pc&#45;&gt;m_big -->
<g id="edge6" class="edge">
<title>pc&#45;&gt;m_big</title>
<path fill="none" stroke="#2c4a5a" stroke-width="1.4" d="M314.1,-390.08C363.43,-377.1 462.93,-350.91 532.2,-332.69"/>
<polygon fill="#2c4a5a" stroke="#2c4a5a" stroke-width="1.4" points="533.41,-335.99 542.19,-330.06 531.62,-329.22 533.41,-335.99"/>
</g>
<!-- ctx -->
<g id="node8" class="node">
<title>ctx</title>
<path fill="#0d141d" stroke="#ffd45f" stroke-width="1.6" d="M389,-243C389,-243 255,-243 255,-243 249,-243 243,-237 243,-231 243,-231 243,-211 243,-211 243,-205 249,-199 255,-199 255,-199 389,-199 389,-199 395,-199 401,-205 401,-211 401,-211 401,-231 401,-231 401,-237 395,-243 389,-243"/>
<text text-anchor="middle" x="322" y="-230.2" font-family="Courier,monospace" font-size="11.00" fill="#ffd45f">map_reduce → context</text>
<text text-anchor="middle" x="322" y="-218.2" font-family="Courier,monospace" font-size="11.00" fill="#ffd45f">capped[:45_000] &#160;(~11k tok)</text>
<text text-anchor="middle" x="322" y="-206.2" font-family="Courier,monospace" font-size="11.00" fill="#ffd45f">diagrams capped[:30_000]</text>
</g>
<!-- m_fast&#45;&gt;ctx -->
<g id="edge7" class="edge">
<title>m_fast&#45;&gt;ctx</title>
<path fill="none" stroke="#2c4a5a" stroke-width="1.4" d="M114.25,-293.95C153.14,-280.48 207.91,-261.51 251.46,-246.43"/>
<polygon fill="#2c4a5a" stroke="#2c4a5a" stroke-width="1.4" points="252.83,-249.66 261.13,-243.08 250.54,-243.04 252.83,-249.66"/>
</g>
<!-- m_sing&#45;&gt;ctx -->
<g id="edge8" class="edge">
<title>m_sing&#45;&gt;ctx</title>
<path fill="none" stroke="#2c4a5a" stroke-width="1.4" d="M246.93,-293.84C259.79,-281.54 277.4,-264.68 292.33,-250.39"/>
<polygon fill="#2c4a5a" stroke="#2c4a5a" stroke-width="1.4" points="295.05,-252.63 299.86,-243.19 290.21,-247.58 295.05,-252.63"/>
</g>
<!-- m_xl&#45;&gt;ctx -->
<g id="edge9" class="edge">
<title>m_xl&#45;&gt;ctx</title>
<path fill="none" stroke="#2c4a5a" stroke-width="1.4" d="M398.68,-293.84C385.55,-281.54 367.56,-264.68 352.31,-250.39"/>
<polygon fill="#2c4a5a" stroke="#2c4a5a" stroke-width="1.4" points="354.31,-247.47 344.62,-243.19 349.52,-252.58 354.31,-247.47"/>
</g>
<!-- m_big&#45;&gt;ctx -->
<g id="edge10" class="edge">
<title>m_big&#45;&gt;ctx</title>
<path fill="none" stroke="#2c4a5a" stroke-width="1.4" d="M552.39,-293.95C508.99,-280.39 447.75,-261.27 399.31,-246.14"/>
<polygon fill="#2c4a5a" stroke="#2c4a5a" stroke-width="1.4" points="400.09,-242.72 389.5,-243.08 398,-249.4 400.09,-242.72"/>
</g>
<!-- code -->
<g id="node9" class="node">
<title>code</title>
<path fill="#0d141d" stroke="#9affae" stroke-width="2.2" d="M319.5,-139C319.5,-139 216.5,-139 216.5,-139 210.5,-139 204.5,-133 204.5,-127 204.5,-127 204.5,-107 204.5,-107 204.5,-101 210.5,-95 216.5,-95 216.5,-95 319.5,-95 319.5,-95 325.5,-95 331.5,-101 331.5,-107 331.5,-107 331.5,-127 331.5,-127 331.5,-133 325.5,-139 319.5,-139"/>
<text text-anchor="middle" x="268" y="-126.2" font-family="Courier,monospace" font-size="11.00" fill="#9affae">C++ section</text>
<text text-anchor="middle" x="268" y="-114.2" font-family="Courier,monospace" font-size="11.00" fill="#9affae">qwen2.5&#45;coder:14b</text>
<text text-anchor="middle" x="268" y="-102.2" font-family="Courier,monospace" font-size="11.00" fill="#9affae">(was qwen3&#45;coder:30b)</text>
</g>
<!-- ctx&#45;&gt;code -->
<g id="edge11" class="edge">
<title>ctx&#45;&gt;code</title>
<path fill="none" stroke="#2c4a5a" stroke-width="1.4" d="M291.75,-198.89C283.99,-191.9 276.56,-183.46 272,-174 268.37,-166.47 266.72,-157.7 266.14,-149.36"/>
<polygon fill="#2c4a5a" stroke="#2c4a5a" stroke-width="1.4" points="269.63,-149.08 265.9,-139.16 262.63,-149.24 269.63,-149.08"/>
<text text-anchor="middle" x="313" y="-166.8" font-family="Courier,monospace" font-size="9.00" fill="#66aa88">cpp uses 14B coder</text>
</g>
<!-- out -->
<g id="node10" class="node">
<title>out</title>
<path fill="#0d141d" stroke="#ffa45f" stroke-width="2" d="M413,-44C413,-44 231,-44 231,-44 225,-44 219,-38 219,-32 219,-32 219,-12 219,-12 219,-6 225,0 231,0 231,0 413,0 413,0 419,0 425,-6 425,-12 425,-12 425,-32 425,-32 425,-38 419,-44 413,-44"/>
<text text-anchor="middle" x="322" y="-31.2" font-family="Courier,monospace" font-size="11.00" fill="#ffa45f">_processed/ bundle</text>
<text text-anchor="middle" x="322" y="-19.2" font-family="Courier,monospace" font-size="11.00" fill="#ffa45f">01_summary · 02_logic · 03_cpp</text>
<text text-anchor="middle" x="322" y="-7.2" font-family="Courier,monospace" font-size="11.00" fill="#ffa45f">diagrams · 04_extras · metadata.json</text>
</g>
<!-- ctx&#45;&gt;out -->
<g id="edge12" class="edge">
<title>ctx&#45;&gt;out</title>
<path fill="none" stroke="#2c4a5a" stroke-width="1.4" d="M342.69,-198.79C348.47,-191.51 353.99,-182.94 357,-174 370.79,-133.1 353.56,-84.17 338.77,-53.33"/>
<polygon fill="#2c4a5a" stroke="#2c4a5a" stroke-width="1.4" points="341.89,-51.75 334.29,-44.37 335.63,-54.88 341.89,-51.75"/>
</g>
<!-- code&#45;&gt;out -->
<g id="edge13" class="edge">
<title>code&#45;&gt;out</title>
<path fill="none" stroke="#2c4a5a" stroke-width="1.4" d="M280.25,-94.9C287.43,-82.53 296.62,-66.71 304.55,-53.06"/>
<polygon fill="#2c4a5a" stroke="#2c4a5a" stroke-width="1.4" points="307.8,-54.43 309.8,-44.02 301.75,-50.91 307.8,-54.43"/>
</g>
</g>
</svg>
