<?xml version="1.0" encoding="UTF-8" standalone="no"?>
<!DOCTYPE svg PUBLIC "-//W3C//DTD SVG 1.1//EN"
 "http://www.w3.org/Graphics/SVG/1.1/DTD/svg11.dtd">
<!-- Generated by graphviz version 2.43.0 (0)
 -->
<!-- Title: provenance Pages: 1 -->
<svg width="1682pt" height="124pt"
 viewBox="0.00 0.00 1681.60 123.60" xmlns="http://www.w3.org/2000/svg" xmlns:xlink="http://www.w3.org/1999/xlink">
<g id="graph0" class="graph" transform="scale(1 1) rotate(0) translate(28.8 94.8)">
<title>provenance</title>
<polygon fill="#06090f" stroke="transparent" points="-28.8,28.8 -28.8,-94.8 1652.8,-94.8 1652.8,28.8 -28.8,28.8"/>
<text text-anchor="middle" x="812" y="-50" font-family="Courier,monospace" font-size="15.00" fill="#5fffcf">Provenance — 2026&#45;06&#45;09 · worlock</text>
<!-- run -->
<g id="node1" class="node">
<title>run</title>
<path fill="#0d141d" stroke="#ff6b6b" stroke-width="1.6" d="M114,-38.5C114,-38.5 12,-38.5 12,-38.5 6,-38.5 0,-32.5 0,-26.5 0,-26.5 0,-14.5 0,-14.5 0,-8.5 6,-2.5 12,-2.5 12,-2.5 114,-2.5 114,-2.5 120,-2.5 126,-8.5 126,-14.5 126,-14.5 126,-26.5 126,-26.5 126,-32.5 120,-38.5 114,-38.5"/>
<text text-anchor="middle" x="63" y="-23.5" font-family="Courier,monospace" font-size="10.00" fill="#ff6b6b">run: 5208 ✅ / 11 ❌</text>
<text text-anchor="middle" x="63" y="-12.5" font-family="Courier,monospace" font-size="10.00" fill="#ff6b6b">HTTP 500 runner&#45;OOM</text>
</g>
<!-- inv -->
<g id="node2" class="node">
<title>inv</title>
<path fill="#0d141d" stroke="#ffd45f" stroke-width="1.6" d="M347,-38.5C347,-38.5 192,-38.5 192,-38.5 186,-38.5 180,-32.5 180,-26.5 180,-26.5 180,-14.5 180,-14.5 180,-8.5 186,-2.5 192,-2.5 192,-2.5 347,-2.5 347,-2.5 353,-2.5 359,-8.5 359,-14.5 359,-14.5 359,-26.5 359,-26.5 359,-32.5 353,-38.5 347,-38.5"/>
<text text-anchor="middle" x="269.5" y="-23.5" font-family="Courier,monospace" font-size="10.00" fill="#ffd45f">investigate</text>
<text text-anchor="middle" x="269.5" y="-12.5" font-family="Courier,monospace" font-size="10.00" fill="#ffd45f">ollama log + /proc + nvidia&#45;smi</text>
</g>
<!-- run&#45;&gt;inv -->
<g id="edge1" class="edge">
<title>run&#45;&gt;inv</title>
<path fill="none" stroke="#2c4a5a" stroke-width="1.4" d="M126.19,-20.5C139.94,-20.5 154.83,-20.5 169.64,-20.5"/>
<polygon fill="#2c4a5a" stroke="#2c4a5a" stroke-width="1.4" points="169.85,-24 179.85,-20.5 169.85,-17 169.85,-24"/>
</g>
<!-- diag -->
<g id="node3" class="node">
<title>diag</title>
<path fill="#0d141d" stroke="#ff6b6b" stroke-width="1.6" d="M517,-41C517,-41 425,-41 425,-41 419,-41 413,-35 413,-29 413,-29 413,-12 413,-12 413,-6 419,0 425,0 425,0 517,0 517,0 523,0 529,-6 529,-12 529,-12 529,-29 529,-29 529,-35 523,-41 517,-41"/>
<text text-anchor="middle" x="471" y="-29" font-family="Courier,monospace" font-size="10.00" fill="#ff6b6b">diagnosis:</text>
<text text-anchor="middle" x="471" y="-18" font-family="Courier,monospace" font-size="10.00" fill="#ff6b6b">GPU1 8.26 &gt; 8.2 GiB</text>
<text text-anchor="middle" x="471" y="-7" font-family="Courier,monospace" font-size="10.00" fill="#ff6b6b">+ two 30B models</text>
</g>
<!-- inv&#45;&gt;diag -->
<g id="edge2" class="edge">
<title>inv&#45;&gt;diag</title>
<path fill="none" stroke="#2c4a5a" stroke-width="1.4" d="M359.17,-20.5C373.82,-20.5 388.8,-20.5 402.81,-20.5"/>
<polygon fill="#2c4a5a" stroke="#2c4a5a" stroke-width="1.4" points="402.83,-24 412.83,-20.5 402.83,-17 402.83,-24"/>
</g>
<!-- c12 -->
<g id="node4" class="node">
<title>c12</title>
<path fill="#0d141d" stroke="#9affae" stroke-width="1.6" d="M720,-41C720,-41 595,-41 595,-41 589,-41 583,-35 583,-29 583,-29 583,-12 583,-12 583,-6 589,0 595,0 595,0 720,0 720,0 726,0 732,-6 732,-12 732,-12 732,-29 732,-29 732,-35 726,-41 720,-41"/>
<text text-anchor="middle" x="657.5" y="-29" font-family="Courier,monospace" font-size="10.00" fill="#9affae">commit aed7463</text>
<text text-anchor="middle" x="657.5" y="-18" font-family="Courier,monospace" font-size="10.00" fill="#9affae">1 · select_model &gt;200→14B</text>
<text text-anchor="middle" x="657.5" y="-7" font-family="Courier,monospace" font-size="10.00" fill="#9affae">2 · &#45;&#45;ocr&#45;max&#45;pages=40</text>
</g>
<!-- diag&#45;&gt;c12 -->
<g id="edge3" class="edge">
<title>diag&#45;&gt;c12</title>
<path fill="none" stroke="#2c4a5a" stroke-width="1.4" d="M529.11,-20.5C542.87,-20.5 557.86,-20.5 572.56,-20.5"/>
<polygon fill="#2c4a5a" stroke="#2c4a5a" stroke-width="1.4" points="572.67,-24 582.67,-20.5 572.67,-17 572.67,-24"/>
</g>
<!-- c34 -->
<g id="node5" class="node">
<title>c34</title>
<path fill="#0d141d" stroke="#9affae" stroke-width="1.6" d="M917,-41C917,-41 798,-41 798,-41 792,-41 786,-35 786,-29 786,-29 786,-12 786,-12 786,-6 792,0 798,0 798,0 917,0 917,0 923,0 929,-6 929,-12 929,-12 929,-29 929,-29 929,-35 923,-41 917,-41"/>
<text text-anchor="middle" x="857.5" y="-29" font-family="Courier,monospace" font-size="10.00" fill="#9affae">commit c823b7d</text>
<text text-anchor="middle" x="857.5" y="-18" font-family="Courier,monospace" font-size="10.00" fill="#9affae">3 · code_model→14B coder</text>
<text text-anchor="middle" x="857.5" y="-7" font-family="Courier,monospace" font-size="10.00" fill="#9affae">4 · context 90k→45k</text>
</g>
<!-- c12&#45;&gt;c34 -->
<g id="edge4" class="edge">
<title>c12&#45;&gt;c34</title>
<path fill="none" stroke="#2c4a5a" stroke-width="1.4" d="M732.23,-20.5C746.38,-20.5 761.28,-20.5 775.65,-20.5"/>
<polygon fill="#2c4a5a" stroke="#2c4a5a" stroke-width="1.4" points="776,-24 786,-20.5 776,-17 776,-24"/>
</g>
<!-- rec -->
<g id="node6" class="node">
<title>rec</title>
<path fill="#0d141d" stroke="#7ab8ff" stroke-width="1.6" d="M1166,-41C1166,-41 995,-41 995,-41 989,-41 983,-35 983,-29 983,-29 983,-12 983,-12 983,-6 989,0 995,0 995,0 1166,0 1166,0 1172,0 1178,-6 1178,-12 1178,-12 1178,-29 1178,-29 1178,-35 1172,-41 1166,-41"/>
<text text-anchor="middle" x="1080.5" y="-29" font-family="Courier,monospace" font-size="10.00" fill="#7ab8ff">record subfolder</text>
<text text-anchor="middle" x="1080.5" y="-18" font-family="Courier,monospace" font-size="10.00" fill="#7ab8ff">changes/…_blast&#45;radius&#45;caps/</text>
<text text-anchor="middle" x="1080.5" y="-7" font-family="Courier,monospace" font-size="10.00" fill="#7ab8ff">patch + copies + README + diagrams</text>
</g>
<!-- c34&#45;&gt;rec -->
<g id="edge5" class="edge">
<title>c34&#45;&gt;rec</title>
<path fill="none" stroke="#2c4a5a" stroke-width="1.4" d="M929.03,-20.5C942.89,-20.5 957.71,-20.5 972.46,-20.5"/>
<polygon fill="#2c4a5a" stroke="#2c4a5a" stroke-width="1.4" points="972.64,-24 982.64,-20.5 972.64,-17 972.64,-24"/>
</g>
<!-- push -->
<g id="node7" class="node">
<title>push</title>
<path fill="#0d141d" stroke="#5fffcf" stroke-width="2.2" d="M1400,-38.5C1400,-38.5 1244,-38.5 1244,-38.5 1238,-38.5 1232,-32.5 1232,-26.5 1232,-26.5 1232,-14.5 1232,-14.5 1232,-8.5 1238,-2.5 1244,-2.5 1244,-2.5 1400,-2.5 1400,-2.5 1406,-2.5 1412,-8.5 1412,-14.5 1412,-14.5 1412,-26.5 1412,-26.5 1412,-32.5 1406,-38.5 1400,-38.5"/>
<text text-anchor="middle" x="1322" y="-23.5" font-family="Courier,monospace" font-size="10.00" fill="#5fffcf">rebase onto origin/main</text>
<text text-anchor="middle" x="1322" y="-12.5" font-family="Courier,monospace" font-size="10.00" fill="#5fffcf">push → danindiana/lobster&#45;graph</text>
</g>
<!-- rec&#45;&gt;push -->
<g id="edge6" class="edge">
<title>rec&#45;&gt;push</title>
<path fill="none" stroke="#2c4a5a" stroke-width="1.4" d="M1178.22,-20.5C1192.43,-20.5 1207.09,-20.5 1221.35,-20.5"/>
<polygon fill="#2c4a5a" stroke="#2c4a5a" stroke-width="1.4" points="1221.66,-24 1231.66,-20.5 1221.66,-17 1221.66,-24"/>
</g>
<!-- restart -->
<g id="node8" class="node">
<title>restart</title>
<path fill="#0d141d" stroke="#ffa45f" stroke-width="1.6" d="M1612,-38.5C1612,-38.5 1478,-38.5 1478,-38.5 1472,-38.5 1466,-32.5 1466,-26.5 1466,-26.5 1466,-14.5 1466,-14.5 1466,-8.5 1472,-2.5 1478,-2.5 1478,-2.5 1612,-2.5 1612,-2.5 1618,-2.5 1624,-8.5 1624,-14.5 1624,-14.5 1624,-26.5 1624,-26.5 1624,-32.5 1618,-38.5 1612,-38.5"/>
<text text-anchor="middle" x="1545" y="-23.5" font-family="Courier,monospace" font-size="10.00" fill="#ffa45f">restart (separate instance)</text>
<text text-anchor="middle" x="1545" y="-12.5" font-family="Courier,monospace" font-size="10.00" fill="#ffa45f">picks up working&#45;tree fixes</text>
</g>
<!-- push&#45;&gt;restart -->
<g id="edge7" class="edge">
<title>push&#45;&gt;restart</title>
<path fill="none" stroke="#2c4a5a" stroke-width="1.4" d="M1412.25,-20.5C1426.52,-20.5 1441.28,-20.5 1455.53,-20.5"/>
<polygon fill="#2c4a5a" stroke="#2c4a5a" stroke-width="1.4" points="1455.8,-24 1465.8,-20.5 1455.8,-17 1455.8,-24"/>
</g>
</g>
</svg>
