<?xml version="1.0" encoding="UTF-8" standalone="no"?>
<!DOCTYPE svg PUBLIC "-//W3C//DTD SVG 1.1//EN"
 "http://www.w3.org/Graphics/SVG/1.1/DTD/svg11.dtd">
<!-- Generated by graphviz version 2.43.0 (0)
 -->
<!-- Title: overview Pages: 1 -->
<svg width="839pt" height="474pt"
 viewBox="0.00 0.00 839.00 474.00" xmlns="http://www.w3.org/2000/svg" xmlns:xlink="http://www.w3.org/1999/xlink">
<g id="graph0" class="graph" transform="scale(1 1) rotate(0) translate(36 438)">
<title>overview</title>
<polygon fill="black" stroke="transparent" points="-36,36 -36,-438 803,-438 803,36 -36,36"/>
<text text-anchor="middle" x="383.5" y="-384.4" font-family="Courier New" font-size="17.00" fill="#00ff41">session_archive — 30,000ft overview</text>
<g id="clust1" class="cluster">
<title>cluster_corpus</title>
<polygon fill="black" stroke="#ff00ff" stroke-dasharray="5,2" points="8,-206 8,-293 230,-293 230,-206 8,-206"/>
<text text-anchor="middle" x="119" y="-275.4" font-family="Courier New" font-size="17.00" fill="#ff00ff">Corpus</text>
</g>
<g id="clust2" class="cluster">
<title>cluster_module</title>
<polygon fill="black" stroke="#00ffff" stroke-dasharray="5,2" points="251,-138 251,-361 452,-361 452,-138 251,-138"/>
<text text-anchor="middle" x="351.5" y="-343.4" font-family="Courier New" font-size="17.00" fill="#00ffff">session_archive/</text>
</g>
<g id="clust3" class="cluster">
<title>cluster_storage</title>
<polygon fill="black" stroke="#7fff00" stroke-dasharray="5,2" points="551,-167 551,-367 759,-367 759,-167 551,-167"/>
<text text-anchor="middle" x="655" y="-349.4" font-family="Courier New" font-size="17.00" fill="#7fff00">Storage</text>
</g>
<g id="clust4" class="cluster">
<title>cluster_user</title>
<polygon fill="black" stroke="#ffff00" stroke-dasharray="5,2" points="551,-8 551,-159 759,-159 759,-8 551,-8"/>
<text text-anchor="middle" x="655" y="-141.4" font-family="Courier New" font-size="17.00" fill="#ffff00">You</text>
</g>
<!-- corpus -->
<g id="node1" class="node">
<title>corpus</title>
<polygon fill="#0a0a0a" stroke="#ff00ff" stroke-width="2" points="222,-258 219,-262 198,-262 195,-258 16,-258 16,-214 222,-214 222,-258"/>
<text text-anchor="middle" x="119" y="-245.2" font-family="Courier New" font-size="11.00" fill="#ff00ff">claude_creations/*/</text>
<text text-anchor="middle" x="119" y="-233.2" font-family="Courier New" font-size="11.00" fill="#ff00ff">286 dated session folders</text>
<text text-anchor="middle" x="119" y="-221.2" font-family="Courier New" font-size="11.00" fill="#ff00ff">(this project&#39;s own history)</text>
</g>
<!-- ingest -->
<g id="node2" class="node">
<title>ingest</title>
<polygon fill="#0a0a0a" stroke="#00ffff" stroke-width="2" points="444,-254 259,-254 259,-218 444,-218 444,-254"/>
<text text-anchor="middle" x="351.5" y="-239.2" font-family="Courier New" font-size="11.00" fill="#00ffff">ingest_sessions.py</text>
<text text-anchor="middle" x="351.5" y="-227.2" font-family="Courier New" font-size="11.00" fill="#00ffff">summarize + chunk + embed</text>
</g>
<!-- corpus&#45;&gt;ingest -->
<g id="edge1" class="edge">
<title>corpus&#45;&gt;ingest</title>
<path fill="none" stroke="#ff00ff" stroke-width="2" d="M222.11,-236C231.03,-236 240.06,-236 248.98,-236"/>
<polygon fill="#ff00ff" stroke="#ff00ff" stroke-width="2" points="248.99,-239.5 258.99,-236 248.99,-232.5 248.99,-239.5"/>
</g>
<!-- neo4j -->
<g id="node5" class="node">
<title>neo4j</title>
<path fill="#0a0a0a" stroke="#7fff00" stroke-width="2" d="M751,-229.96C751,-233.02 707.97,-235.5 655,-235.5 602.03,-235.5 559,-233.02 559,-229.96 559,-229.96 559,-180.04 559,-180.04 559,-176.98 602.03,-174.5 655,-174.5 707.97,-174.5 751,-176.98 751,-180.04 751,-180.04 751,-229.96 751,-229.96"/>
<path fill="none" stroke="#7fff00" stroke-width="2" d="M751,-229.96C751,-226.9 707.97,-224.41 655,-224.41 602.03,-224.41 559,-226.9 559,-229.96"/>
<text text-anchor="middle" x="655" y="-214.2" font-family="Courier New" font-size="11.00" fill="#7fff00">paper&#45;processor&#45;neo4j</text>
<text text-anchor="middle" x="655" y="-202.2" font-family="Courier New" font-size="11.00" fill="#7fff00">Session + Concept graph</text>
<text text-anchor="middle" x="655" y="-190.2" font-family="Courier New" font-size="11.00" fill="#7fff00">(shared with AI/ML papers)</text>
</g>
<!-- ingest&#45;&gt;neo4j -->
<g id="edge2" class="edge">
<title>ingest&#45;&gt;neo4j</title>
<path fill="none" stroke="#00ffff" stroke-width="2" d="M444.19,-226.57C477.22,-223.18 514.75,-219.32 548.85,-215.81"/>
<polygon fill="#00ffff" stroke="#00ffff" stroke-width="2" points="549.24,-219.29 558.83,-214.78 548.53,-212.33 549.24,-219.29"/>
</g>
<!-- faiss -->
<g id="node6" class="node">
<title>faiss</title>
<path fill="#0a0a0a" stroke="#7fff00" stroke-width="2" d="M737.5,-326.96C737.5,-330.02 700.52,-332.5 655,-332.5 609.48,-332.5 572.5,-330.02 572.5,-326.96 572.5,-326.96 572.5,-277.04 572.5,-277.04 572.5,-273.98 609.48,-271.5 655,-271.5 700.52,-271.5 737.5,-273.98 737.5,-277.04 737.5,-277.04 737.5,-326.96 737.5,-326.96"/>
<path fill="none" stroke="#7fff00" stroke-width="2" d="M737.5,-326.96C737.5,-323.9 700.52,-321.41 655,-321.41 609.48,-321.41 572.5,-323.9 572.5,-326.96"/>
<text text-anchor="middle" x="655" y="-311.2" font-family="Courier New" font-size="11.00" fill="#7fff00">FAISS index</text>
<text text-anchor="middle" x="655" y="-299.2" font-family="Courier New" font-size="11.00" fill="#7fff00">/mnt/nvme_staging/</text>
<text text-anchor="middle" x="655" y="-287.2" font-family="Courier New" font-size="11.00" fill="#7fff00">session_archive_index/</text>
</g>
<!-- ingest&#45;&gt;faiss -->
<g id="edge3" class="edge">
<title>ingest&#45;&gt;faiss</title>
<path fill="none" stroke="#00ffff" stroke-width="2" d="M420.7,-254.06C434.35,-257.49 448.6,-260.96 462,-264 494.45,-271.35 530.16,-278.64 561.89,-284.84"/>
<polygon fill="#00ffff" stroke="#00ffff" stroke-width="2" points="561.56,-288.34 572.04,-286.81 562.89,-281.47 561.56,-288.34"/>
</g>
<!-- label_ -->
<g id="node3" class="node">
<title>label_</title>
<polygon fill="#0a0a0a" stroke="#00ffff" stroke-width="2" points="441,-326 262,-326 262,-290 441,-290 441,-326"/>
<text text-anchor="middle" x="351.5" y="-311.2" font-family="Courier New" font-size="11.00" fill="#00ffff">label_sessions.py</text>
<text text-anchor="middle" x="351.5" y="-299.2" font-family="Courier New" font-size="11.00" fill="#00ffff">teach it what&#39;s relevant</text>
</g>
<!-- label_&#45;&gt;faiss -->
<g id="edge4" class="edge">
<title>label_&#45;&gt;faiss</title>
<path fill="none" stroke="#00ffff" stroke-width="2" d="M389.52,-326.1C410.28,-335.24 436.97,-345.37 462,-350 496.52,-356.39 506.59,-357 541,-350 556.33,-346.88 572.17,-341.6 586.95,-335.66"/>
<polygon fill="#00ffff" stroke="#00ffff" stroke-width="2" points="588.62,-338.75 596.5,-331.67 585.92,-332.29 588.62,-338.75"/>
<text text-anchor="middle" x="501.5" y="-358" font-family="Courier New" font-size="10.00">reads vectors</text>
</g>
<!-- label_&#45;&gt;faiss -->
<!-- query -->
<g id="node4" class="node">
<title>query</title>
<polygon fill="#0a0a0a" stroke="#00ffff" stroke-width="2" points="417,-182 286,-182 286,-146 417,-146 417,-182"/>
<text text-anchor="middle" x="351.5" y="-167.2" font-family="Courier New" font-size="11.00" fill="#00ffff">query_sessions.py</text>
<text text-anchor="middle" x="351.5" y="-155.2" font-family="Courier New" font-size="11.00" fill="#00ffff">ask it a question</text>
</g>
<!-- query&#45;&gt;neo4j -->
<g id="edge8" class="edge">
<title>query&#45;&gt;neo4j</title>
<path fill="none" stroke="#7fff00" stroke-width="2" d="M417.18,-172.8C455.46,-178 504.89,-184.72 548.67,-190.68"/>
<polygon fill="#7fff00" stroke="#7fff00" stroke-width="2" points="548.41,-194.17 558.79,-192.05 549.36,-187.24 548.41,-194.17"/>
</g>
<!-- query&#45;&gt;faiss -->
<g id="edge7" class="edge">
<title>query&#45;&gt;faiss</title>
<path fill="none" stroke="#7fff00" stroke-width="2" d="M417.08,-181.7C429.26,-186.58 441.47,-192.62 452,-200 457.68,-203.99 456.5,-207.76 462,-212 492.64,-235.64 530.49,-255.04 564.46,-269.7"/>
<polygon fill="#7fff00" stroke="#7fff00" stroke-width="2" points="563.36,-273.03 573.93,-273.71 566.08,-266.58 563.36,-273.03"/>
</g>
<!-- answer -->
<g id="node8" class="node">
<title>answer</title>
<polygon fill="#0a0a0a" stroke="#ffff00" stroke-width="2" points="725,-124 579,-124 579,-88 731,-88 731,-118 725,-124"/>
<polyline fill="none" stroke="#ffff00" stroke-width="2" points="725,-124 725,-118 "/>
<polyline fill="none" stroke="#ffff00" stroke-width="2" points="731,-118 725,-118 "/>
<text text-anchor="middle" x="655" y="-109.2" font-family="Courier New" font-size="11.00" fill="#ffff00">ranked past sessions</text>
<text text-anchor="middle" x="655" y="-97.2" font-family="Courier New" font-size="11.00" fill="#ffff00">+ related concepts</text>
</g>
<!-- query&#45;&gt;answer -->
<g id="edge9" class="edge">
<title>query&#45;&gt;answer</title>
<path fill="none" stroke="#ffff00" stroke-width="2" d="M417.18,-151.56C461.44,-143.04 520.59,-131.66 568.7,-122.41"/>
<polygon fill="#ffff00" stroke="#ffff00" stroke-width="2" points="569.63,-125.79 578.79,-120.47 568.31,-118.92 569.63,-125.79"/>
</g>
<!-- you -->
<g id="node7" class="node">
<title>you</title>
<polygon fill="#0a0a0a" stroke="#ffff00" stroke-width="2" points="745,-52 559,-52 559,-16 751,-16 751,-46 745,-52"/>
<polyline fill="none" stroke="#ffff00" stroke-width="2" points="745,-52 745,-46 "/>
<polyline fill="none" stroke="#ffff00" stroke-width="2" points="751,-46 745,-46 "/>
<text text-anchor="middle" x="655" y="-37.2" font-family="Courier New" font-size="11.00" fill="#ffff00">natural&#45;language question</text>
<text text-anchor="middle" x="655" y="-25.2" font-family="Courier New" font-size="11.00" fill="#ffff00">or &quot;&#45;&#45;like &lt;past session&gt;&quot;</text>
</g>
<!-- you&#45;&gt;query -->
<g id="edge6" class="edge">
<title>you&#45;&gt;query</title>
<path fill="none" stroke="#ffff00" stroke-width="2" d="M598.8,-52.08C583.22,-57.51 566.33,-63.71 551,-70 497.11,-92.1 436.86,-121.3 397.02,-141.25"/>
<polygon fill="#ffff00" stroke="#ffff00" stroke-width="2" points="395.21,-138.24 387.85,-145.86 398.36,-144.5 395.21,-138.24"/>
</g>
</g>
</svg>
